<mxfile host="app.diagrams.net" agent="Mozilla/5.0 (Windows NT 10.0; Win64; x64) AppleWebKit/537.36 (KHTML, like Gecko) Chrome/131.0.0.0 Safari/537.36" version="24.8.6">
  <diagram name="Página-1" id="35Yjl3ZoFhNZtIWtpQq5">
    <mxGraphModel grid="1" page="1" gridSize="10" guides="1" tooltips="1" connect="1" arrows="1" fold="1" pageScale="1" pageWidth="827" pageHeight="1169" math="0" shadow="0">
      <root>
        <mxCell id="0" />
        <mxCell id="1" parent="0" />
        <mxCell id="UL19m2MJ-aDVJfOdzmaI-1" value="&lt;font style=&quot;vertical-align: inherit;&quot;&gt;&lt;font style=&quot;vertical-align: inherit;&quot;&gt;Cliente&lt;/font&gt;&lt;/font&gt;" style="shape=umlActor;verticalLabelPosition=bottom;verticalAlign=top;html=1;outlineConnect=0;" vertex="1" parent="1">
          <mxGeometry x="-30" y="100" width="60" height="120" as="geometry" />
        </mxCell>
        <mxCell id="UL19m2MJ-aDVJfOdzmaI-2" value="&lt;font style=&quot;vertical-align: inherit;&quot;&gt;&lt;font style=&quot;vertical-align: inherit;&quot;&gt;Cliente&lt;/font&gt;&lt;/font&gt;" style="shape=umlActor;verticalLabelPosition=bottom;verticalAlign=top;html=1;outlineConnect=0;" vertex="1" parent="1">
          <mxGeometry x="710" y="320" width="60" height="120" as="geometry" />
        </mxCell>
        <mxCell id="UL19m2MJ-aDVJfOdzmaI-3" value="&lt;font style=&quot;vertical-align: inherit;&quot;&gt;&lt;font style=&quot;vertical-align: inherit;&quot;&gt;Faz a solicitação&lt;/font&gt;&lt;/font&gt;" style="ellipse;whiteSpace=wrap;html=1;shadow=1;" vertex="1" parent="1">
          <mxGeometry x="210" y="80" width="170" height="90" as="geometry" />
        </mxCell>
        <mxCell id="UL19m2MJ-aDVJfOdzmaI-4" value="Recebe a solicitação" style="ellipse;whiteSpace=wrap;html=1;shadow=1;" vertex="1" parent="1">
          <mxGeometry x="220" y="300" width="170" height="90" as="geometry" />
        </mxCell>
        <mxCell id="UL19m2MJ-aDVJfOdzmaI-5" value="" style="endArrow=none;html=1;rounded=0;entryX=0.035;entryY=0.633;entryDx=0;entryDy=0;entryPerimeter=0;" edge="1" parent="1">
          <mxGeometry width="50" height="50" relative="1" as="geometry">
            <mxPoint x="40" y="180" as="sourcePoint" />
            <mxPoint x="212.95000000000005" y="136.97000000000003" as="targetPoint" />
          </mxGeometry>
        </mxCell>
        <mxCell id="UL19m2MJ-aDVJfOdzmaI-6" value="" style="endArrow=none;html=1;rounded=0;entryX=0.5;entryY=1;entryDx=0;entryDy=0;exitX=0.459;exitY=-0.033;exitDx=0;exitDy=0;exitPerimeter=0;" edge="1" parent="1" source="UL19m2MJ-aDVJfOdzmaI-4" target="UL19m2MJ-aDVJfOdzmaI-3">
          <mxGeometry width="50" height="50" relative="1" as="geometry">
            <mxPoint x="390" y="330" as="sourcePoint" />
            <mxPoint x="440" y="280" as="targetPoint" />
          </mxGeometry>
        </mxCell>
        <mxCell id="UL19m2MJ-aDVJfOdzmaI-7" value="&amp;lt;&amp;lt; include &amp;gt;&amp;gt;" style="text;html=1;align=center;verticalAlign=middle;whiteSpace=wrap;rounded=0;" vertex="1" parent="1">
          <mxGeometry x="310" y="220" width="80" height="30" as="geometry" />
        </mxCell>
        <mxCell id="UL19m2MJ-aDVJfOdzmaI-8" value="" style="endArrow=none;html=1;rounded=0;exitX=1;exitY=0.5;exitDx=0;exitDy=0;" edge="1" parent="1" source="UL19m2MJ-aDVJfOdzmaI-4">
          <mxGeometry width="50" height="50" relative="1" as="geometry">
            <mxPoint x="390" y="330" as="sourcePoint" />
            <mxPoint x="680" y="380" as="targetPoint" />
          </mxGeometry>
        </mxCell>
        <mxCell id="UL19m2MJ-aDVJfOdzmaI-9" value="Categoriza a solicitação com sua prioridade" style="ellipse;whiteSpace=wrap;html=1;shadow=1;" vertex="1" parent="1">
          <mxGeometry x="220" y="480" width="170" height="90" as="geometry" />
        </mxCell>
        <mxCell id="UL19m2MJ-aDVJfOdzmaI-10" value="" style="endArrow=none;html=1;rounded=0;entryX=0.5;entryY=1;entryDx=0;entryDy=0;exitX=0.5;exitY=0;exitDx=0;exitDy=0;" edge="1" parent="1" source="UL19m2MJ-aDVJfOdzmaI-9" target="UL19m2MJ-aDVJfOdzmaI-4">
          <mxGeometry width="50" height="50" relative="1" as="geometry">
            <mxPoint x="300" y="480" as="sourcePoint" />
            <mxPoint x="350" y="430" as="targetPoint" />
          </mxGeometry>
        </mxCell>
        <mxCell id="UL19m2MJ-aDVJfOdzmaI-11" value="" style="endArrow=none;html=1;rounded=0;" edge="1" parent="1">
          <mxGeometry width="50" height="50" relative="1" as="geometry">
            <mxPoint x="390" y="520" as="sourcePoint" />
            <mxPoint x="680" y="380" as="targetPoint" />
          </mxGeometry>
        </mxCell>
        <mxCell id="UL19m2MJ-aDVJfOdzmaI-12" value="&amp;lt;&amp;lt; include &amp;gt;&amp;gt;" style="text;html=1;align=center;verticalAlign=middle;whiteSpace=wrap;rounded=0;" vertex="1" parent="1">
          <mxGeometry x="320" y="420" width="80" height="30" as="geometry" />
        </mxCell>
        <mxCell id="UL19m2MJ-aDVJfOdzmaI-13" value="Visualizar o status da solicitação" style="ellipse;whiteSpace=wrap;html=1;shadow=1;" vertex="1" parent="1">
          <mxGeometry x="80" y="620" width="170" height="90" as="geometry" />
        </mxCell>
        <mxCell id="UL19m2MJ-aDVJfOdzmaI-14" value="" style="endArrow=none;html=1;rounded=0;" edge="1" parent="1">
          <mxGeometry width="50" height="50" relative="1" as="geometry">
            <mxPoint x="167" y="620" as="sourcePoint" />
            <mxPoint x="40" y="180" as="targetPoint" />
          </mxGeometry>
        </mxCell>
        <mxCell id="UL19m2MJ-aDVJfOdzmaI-15" value="" style="endArrow=none;html=1;rounded=0;" edge="1" parent="1">
          <mxGeometry width="50" height="50" relative="1" as="geometry">
            <mxPoint x="250" y="670" as="sourcePoint" />
            <mxPoint x="680" y="380" as="targetPoint" />
          </mxGeometry>
        </mxCell>
        <mxCell id="UL19m2MJ-aDVJfOdzmaI-16" value="" style="endArrow=none;html=1;rounded=0;exitX=1;exitY=0;exitDx=0;exitDy=0;" edge="1" parent="1" source="UL19m2MJ-aDVJfOdzmaI-13">
          <mxGeometry width="50" height="50" relative="1" as="geometry">
            <mxPoint x="200" y="610" as="sourcePoint" />
            <mxPoint x="250" y="560" as="targetPoint" />
          </mxGeometry>
        </mxCell>
        <mxCell id="UL19m2MJ-aDVJfOdzmaI-17" value="&amp;lt;&amp;lt; include &amp;gt;&amp;gt;" style="text;html=1;align=center;verticalAlign=middle;whiteSpace=wrap;rounded=0;" vertex="1" parent="1">
          <mxGeometry x="240" y="590" width="80" height="30" as="geometry" />
        </mxCell>
        <mxCell id="UL19m2MJ-aDVJfOdzmaI-18" value="Resolve a solicitação&amp;nbsp;&lt;div&gt;do cliente&lt;/div&gt;" style="ellipse;whiteSpace=wrap;html=1;shadow=1;" vertex="1" parent="1">
          <mxGeometry x="220" y="770" width="170" height="90" as="geometry" />
        </mxCell>
        <mxCell id="UL19m2MJ-aDVJfOdzmaI-19" value="" style="endArrow=none;html=1;rounded=0;" edge="1" parent="1">
          <mxGeometry width="50" height="50" relative="1" as="geometry">
            <mxPoint x="384" y="800" as="sourcePoint" />
            <mxPoint x="680" y="380" as="targetPoint" />
          </mxGeometry>
        </mxCell>
        <mxCell id="UL19m2MJ-aDVJfOdzmaI-20" value="Finaliza a solicitação" style="ellipse;whiteSpace=wrap;html=1;shadow=1;" vertex="1" parent="1">
          <mxGeometry x="220" y="950" width="170" height="90" as="geometry" />
        </mxCell>
        <mxCell id="UL19m2MJ-aDVJfOdzmaI-21" value="" style="endArrow=none;html=1;rounded=0;entryX=0.447;entryY=1.022;entryDx=0;entryDy=0;entryPerimeter=0;" edge="1" parent="1" target="UL19m2MJ-aDVJfOdzmaI-18">
          <mxGeometry width="50" height="50" relative="1" as="geometry">
            <mxPoint x="300" y="950" as="sourcePoint" />
            <mxPoint x="350" y="900" as="targetPoint" />
          </mxGeometry>
        </mxCell>
        <mxCell id="UL19m2MJ-aDVJfOdzmaI-22" value="&amp;lt;&amp;lt; include &amp;gt;&amp;gt;" style="text;html=1;align=center;verticalAlign=middle;whiteSpace=wrap;rounded=0;" vertex="1" parent="1">
          <mxGeometry x="310" y="900" width="80" height="30" as="geometry" />
        </mxCell>
        <mxCell id="UL19m2MJ-aDVJfOdzmaI-23" value="" style="endArrow=none;html=1;rounded=0;exitX=0.029;exitY=0.333;exitDx=0;exitDy=0;exitPerimeter=0;" edge="1" parent="1" source="UL19m2MJ-aDVJfOdzmaI-20">
          <mxGeometry width="50" height="50" relative="1" as="geometry">
            <mxPoint x="110" y="760" as="sourcePoint" />
            <mxPoint x="160" y="710" as="targetPoint" />
          </mxGeometry>
        </mxCell>
        <mxCell id="UL19m2MJ-aDVJfOdzmaI-32" value="&lt;font style=&quot;vertical-align: inherit;&quot;&gt;&lt;font style=&quot;vertical-align: inherit;&quot;&gt;Faz o cadastro&lt;/font&gt;&lt;/font&gt;" style="ellipse;whiteSpace=wrap;html=1;shadow=1;" vertex="1" parent="1">
          <mxGeometry x="210" y="-70" width="170" height="90" as="geometry" />
        </mxCell>
        <mxCell id="UL19m2MJ-aDVJfOdzmaI-33" value="" style="endArrow=none;html=1;rounded=0;entryX=0.106;entryY=0.811;entryDx=0;entryDy=0;entryPerimeter=0;" edge="1" parent="1" target="UL19m2MJ-aDVJfOdzmaI-32">
          <mxGeometry width="50" height="50" relative="1" as="geometry">
            <mxPoint x="40" y="180" as="sourcePoint" />
            <mxPoint x="216" as="targetPoint" />
          </mxGeometry>
        </mxCell>
        <mxCell id="UL19m2MJ-aDVJfOdzmaI-34" value="" style="swimlane;startSize=0;" vertex="1" parent="1">
          <mxGeometry x="60" y="-100" width="580" height="1180" as="geometry" />
        </mxCell>
      </root>
    </mxGraphModel>
  </diagram>
</mxfile>
